<?xml version="1.0" standalone="no"?>
<!DOCTYPE svg PUBLIC "-//W3C//DTD SVG 1.1//EN" "http://www.w3.org/Graphics/SVG/1.1/DTD/svg11.dtd" >
<svg xmlns="http://www.w3.org/2000/svg">
<metadata>Generated by IcoMoon</metadata>
<defs>
<font id="method-icon-solid" horiz-adv-x="1024">
<font-face units-per-em="1024" ascent="960" descent="-64" />
<missing-glyph horiz-adv-x="1024" />
<glyph unicode="&#x20;" horiz-adv-x="512" d="" />
<glyph unicode="&#xe800;" glyph-name="caret-down" d="M1021.269 863.915c-3.755 6.699-10.837 10.837-18.517 10.837h-981.333c-7.765 0-14.848-4.139-18.603-10.837-3.84-6.699-3.669-14.891 0.256-21.504l490.667-817.749c3.84-6.4 10.837-10.325 18.347-10.325s14.421 3.925 18.261 10.325l490.667 817.749c3.968 6.613 4.053 14.805 0.256 21.504z" />
<glyph unicode="&#xe801;" glyph-name="caret-left" d="M927.915 957.312c-6.656 3.797-14.933 3.712-21.504-0.256l-817.749-490.667c-6.4-3.883-10.325-10.795-10.325-18.304s3.925-14.421 10.325-18.304l817.749-490.667c3.413-2.048 7.168-3.029 11.008-3.029 3.584 0 7.253 0.896 10.496 2.731 6.741 3.84 10.837 10.923 10.837 18.603v981.333c0 7.68-4.096 14.805-10.837 18.56z" />
<glyph unicode="&#xe802;" glyph-name="caret-right" d="M935.509 466.432l-817.835 490.667c-6.571 3.883-14.763 4.011-21.504 0.213-6.656-3.755-10.752-10.837-10.752-18.56v-981.333c0-7.68 4.096-14.763 10.752-18.56 3.328-1.877 6.912-2.773 10.581-2.773 3.755 0 7.595 1.024 10.923 3.072l817.835 490.667c6.4 3.84 10.325 10.752 10.325 18.261s-3.925 14.464-10.325 18.347z" />
<glyph unicode="&#xe803;" glyph-name="caret-up" d="M1018.667 56.917l-488.747 814.635c-7.723 12.843-28.885 12.843-36.565 0l-490.667-817.792c-3.968-6.613-4.053-14.805-0.299-21.504 3.797-6.656 10.923-10.837 18.603-10.837h981.76c11.776 0 21.333 9.6 21.333 21.333-0.043 5.461-2.048 10.411-5.419 14.165z" />
<glyph unicode="&#xe804;" glyph-name="box-plus-alt" d="M960 960h-938.667c-11.776 0-21.333-9.557-21.333-21.333v-938.667c0-11.776 9.557-21.333 21.333-21.333h938.667c11.733 0 21.333 9.557 21.333 21.333v938.667c0 11.776-9.6 21.333-21.333 21.333zM750.635 447.488l-238.635 0.256v-234.411c0-11.776-9.6-21.333-21.333-21.333-11.776 0-21.333 9.557-21.333 21.333v234.453l-234.709 0.213c-11.776 0.043-21.291 9.6-21.291 21.376 0 11.733 9.557 21.291 21.333 21.291l234.667-0.213v234.88c0 11.776 9.557 21.333 21.333 21.333 11.733 0 21.333-9.557 21.333-21.333v-234.923l238.677-0.256c11.733 0 21.291-9.557 21.291-21.333s-9.557-21.333-21.333-21.333z" />
<glyph unicode="&#xe805;" glyph-name="circle-plus-alt" d="M838.272 815.616c-92.501 92.885-215.552 144.128-347.605 144.384-270.037 0-490.112-219.648-490.624-489.728-0.256-131.072 50.517-254.379 143.019-347.264 92.501-92.843 215.637-144.128 346.709-144.384h0.939c269.995 0.043 490.112 219.733 490.624 489.813 0.256 131.029-50.56 254.336-143.061 347.179zM746.667 447.488l-234.667 0.256v-234.411c0-11.776-9.6-21.333-21.333-21.333-11.776 0-21.333 9.557-21.333 21.333v234.453l-234.709 0.213c-11.776 0.043-21.333 9.6-21.291 21.376 0 11.733 9.557 21.291 21.333 21.291l234.667-0.213v234.88c0 11.776 9.557 21.333 21.333 21.333 11.733 0 21.333-9.557 21.333-21.333v-234.923l234.709-0.256c11.733 0 21.333-9.557 21.291-21.333 0-11.776-9.557-21.333-21.333-21.333z" />
<glyph unicode="&#xe806;" glyph-name="box-minus-alt" d="M976 952.832c-4.011 4.053-9.429 6.272-15.104 6.272l-939.563 0.896c-5.675 0-11.093-2.261-15.104-6.229s-6.229-9.429-6.229-15.104v-938.667c0-11.776 9.557-21.333 21.333-21.333h938.667c11.733 0 21.291 9.557 21.333 21.333l0.896 937.771c0 5.632-2.219 11.051-6.229 15.061zM746.667 447.488l-512.043 0.512c-11.776 0.043-21.333 9.6-21.291 21.376 0 11.733 9.557 21.291 21.333 21.291l512-0.512c11.776 0 21.333-9.557 21.333-21.333-0.043-11.776-9.6-21.333-21.333-21.333z" />
<glyph unicode="&#xe807;" glyph-name="circle-minus-alt" d="M490.624 960c-270.037 0-490.112-219.648-490.624-489.728-0.256-131.072 50.517-254.379 143.019-347.264 92.501-92.8 215.595-144.085 346.709-144.341h0.939c269.995 0 490.112 219.691 490.667 489.771 0.512 270.507-219.179 491.051-490.709 491.563zM746.667 447.488l-512.043 0.512c-11.776 0.043-21.333 9.6-21.291 21.376 0 11.733 9.557 21.291 21.333 21.291l512-0.512c11.776 0 21.333-9.557 21.333-21.333-0.043-11.776-9.6-21.333-21.333-21.333z" />
<glyph unicode="&#xe808;" glyph-name="caution-solid" d="M977.365-29.696l-467.584 935.253c-7.253 14.464-30.976 14.464-38.187 0l-469.333-938.667c-3.328-6.613-2.944-14.464 0.896-20.736s10.795-10.155 18.219-10.155h939.093c11.733 0 21.333 9.557 21.333 21.333 0 4.864-1.664 9.387-4.437 12.971zM469.376 569.515c0 11.776 9.557 21.333 21.333 21.333 11.733 0 21.333-9.557 21.333-21.333v-326.485c0-11.733-9.6-21.333-21.333-21.333-11.776 0-21.333 9.6-21.333 21.333v326.485zM490.709 59.392c-22.571 0-40.832 18.261-40.832 40.789 0 22.485 18.261 40.832 40.832 40.832 22.485 0 40.789-18.347 40.789-40.832 0-22.571-18.304-40.789-40.789-40.789z" />
<glyph unicode="&#xe809;" glyph-name="star-solid" d="M1022.848 582.997c-3.029 8.576-11.093 14.336-20.181 14.336h-347.563l-123.008 348.416c-3.029 8.533-11.093 14.251-20.096 14.251-9.088 0-17.109-5.717-20.139-14.251l-122.965-348.416h-347.563c-9.088 0-17.195-5.76-20.181-14.336-2.987-8.619-0.171-18.133 6.997-23.765l286.848-225.408-123.264-369.749c-2.944-8.832 0.171-18.56 7.68-24.021s17.664-5.461 25.173 0.043l307.413 225.451 307.371-225.408c3.755-2.816 8.192-4.139 12.629-4.139s8.789 1.323 12.544 4.096c7.552 5.461 10.624 15.189 7.723 24.021l-123.307 369.749 286.891 225.408c7.168 5.589 9.941 15.104 6.997 23.723z" />
<glyph unicode="&#xe80a;" glyph-name="navigation-show-more" d="M640 832c0-70.692-57.308-128-128-128s-128 57.308-128 128c0 70.692 57.308 128 128 128s128-57.308 128-128zM640 448c0-70.692-57.308-128-128-128s-128 57.308-128 128c0 70.692 57.308 128 128 128s128-57.308 128-128zM640 64c0-70.692-57.308-128-128-128s-128 57.308-128 128c0 70.692 57.308 128 128 128s128-57.308 128-128z" />
<glyph unicode="&#xe80b;" glyph-name="check-box-empty" d="M1002.667 960h-981.333c-12.8 0-21.333-8.533-21.333-21.333v-981.333c0-12.8 8.533-21.333 21.333-21.333h981.333c12.8 0 21.333 8.533 21.333 21.333v981.333c0 12.8-8.533 21.333-21.333 21.333zM930.133 46.933c0-8.533-8.533-17.067-17.067-17.067h-802.133c-8.533 0-17.067 8.533-17.067 17.067v802.133c0 8.533 8.533 17.067 17.067 17.067h802.133c8.533 0 17.067-8.533 17.067-17.067v-802.133z" />
<glyph unicode="&#xe80c;" glyph-name="check-circle-full" d="M512 960c-281.6 0-512-230.4-512-512s230.4-512 512-512c281.6 0 512 230.4 512 512s-230.4 512-512 512z" />
<glyph unicode="&#xe80d;" glyph-name="check-circle-empty" d="M512 960c-281.6 0-512-230.4-512-512s230.4-512 512-512c281.6 0 512 230.4 512 512s-230.4 512-512 512zM512 46.933c-221.867 0-401.067 179.2-401.067 401.067s179.2 401.067 401.067 401.067 401.067-179.2 401.067-401.067c0-221.867-179.2-401.067-401.067-401.067z" />
<glyph unicode="&#xe80e;" glyph-name="checkbox-alt" d="M1002.667 959.957h-981.333c-11.776 0-21.333-9.557-21.333-21.333v-981.333c0-11.776 9.557-21.333 21.333-21.333h981.333c11.776 0 21.333 9.557 21.333 21.333v981.333c0 11.776-9.557 21.333-21.333 21.333zM739.925 581.675l-320-298.667c-4.096-3.797-9.344-5.717-14.549-5.717-5.461 0-10.923 2.091-15.104 6.229l-106.667 106.667c-8.32 8.32-8.32 21.845 0 30.165 8.32 8.363 21.845 8.363 30.165 0l92.075-92.075 304.939 284.587c8.619 8.021 22.144 7.595 30.165-0.981 8.064-8.619 7.595-22.144-1.024-30.208z" />
<glyph unicode="&#xe80f;" glyph-name="checkbox-circle-alt" d="M512.043 959.957c-282.325 0-512-229.717-512-512s229.675-512 512-512c282.283 0 512 229.717 512 512s-229.675 512-512 512zM739.925 581.675l-320-298.667c-4.096-3.797-9.344-5.717-14.549-5.717-5.461 0-10.923 2.091-15.104 6.229l-106.667 106.667c-8.32 8.32-8.32 21.845 0 30.165 8.32 8.363 21.845 8.363 30.165 0l92.075-92.075 304.939 284.587c8.576 8.021 22.101 7.595 30.165-0.981 8.064-8.619 7.595-22.144-1.024-30.208z" />
<glyph unicode="&#xe900;" glyph-name="color-drop" d="M572.459 950.784c-7.893 11.947-27.691 11.947-35.584 0-13.269-20.011-323.541-491.989-323.541-673.109 0-188.203 153.131-341.333 341.333-341.333s341.333 153.131 341.333 341.333c0 181.12-310.315 653.099-323.541 673.109zM490.112 545.109c-92.331-175.744-106.112-242.987-106.112-267.435 0-48.555 20.736-94.891 56.96-127.275 8.789-7.893 9.557-21.333 1.664-30.123-4.224-4.693-10.027-7.125-15.872-7.125-5.077 0-10.155 1.792-14.251 5.461-45.227 40.405-71.168 98.432-71.168 159.061 0 50.389 37.333 147.029 111.019 287.275 5.547 10.411 18.389 14.379 28.843 9.003 10.368-5.504 14.421-18.389 8.917-28.843z" />
<glyph unicode="&#xe901;" glyph-name="loop-infinite-1" d="M747.179 739.925h-0.427c-131.755 0-203.221-130.304-272.341-256.299-59.776-109.099-116.267-212.053-197.547-212.053h-0.128c-51.328 0.085-99.541 20.181-135.723 56.491-36.224 36.352-56.064 84.565-55.979 135.893 0.085 51.072 20.352 99.2 57.003 135.595 36.437 36.139 84.395 56.021 134.955 56.021h0.384c41.6-0.085 80.299-21.717 115.072-64.256 14.933-18.219 41.771-20.907 59.989-6.059 18.261 14.933 20.949 41.771 6.059 60.032-50.987 62.421-113.579 95.445-180.949 95.573h-0.555c-73.259 0-142.507-28.672-195.029-80.811-52.907-52.437-82.133-122.069-82.261-196.011-0.171-74.069 28.544-143.787 80.853-196.267 52.267-52.48 121.813-81.493 195.968-81.621h0.384c131.755 0 203.221 130.304 272.341 256.341 59.776 109.056 116.309 212.011 197.547 212.011h0.213c105.813-0.213 191.829-86.485 191.573-192.384-0.085-51.029-20.352-99.2-57.003-135.595-36.48-36.139-84.395-56.021-134.997-56.021h-0.341c-59.52 0.128-109.312 36.267-140.587 66.56-16.896 16.427-43.904 16-60.331-0.939-16.384-16.896-15.957-43.947 0.981-60.331 42.581-41.216 111.787-90.411 199.765-90.581h0.555c73.216 0 142.464 28.715 195.029 80.811 52.907 52.437 82.133 122.069 82.261 196.011 0.341 152.917-123.819 277.589-276.736 277.888z" />
<glyph unicode="&#xe902;" glyph-name="synchronize-3" d="M1017.131 362.709l-103.253 178.603-6.016 8.107c-7.168 7.893-16.939 12.971-27.733 13.909-13.909 1.024-27.477-4.437-36.437-15.104l-137.088-163.499c-15.147-18.048-12.8-44.971 5.248-60.075 18.048-15.147 45.013-12.8 60.075 5.248l62.123 74.027c-23.595-120.875-120.192-227.883-247.552-257.707-107.861-25.387-219.435 6.229-298.411 84.309-16.768 16.597-43.733 16.469-60.331-0.341-16.597-16.768-16.427-43.733 0.341-60.331 77.269-76.373 179.115-117.589 284.501-117.589 31.019 0 62.336 3.584 93.397 10.88 153.813 36.053 272.128 162.176 307.797 307.712l29.44-50.859c7.936-13.696 22.229-21.333 36.949-21.333 7.253 0 14.635 1.835 21.333 5.76 20.437 11.776 27.392 37.845 15.616 58.283zM315.221 547.712c-18.091 15.104-44.971 12.8-60.075-5.291l-73.515-87.68c1.408 54.699 16.896 108.757 46.293 157.739 47.403 79.147 124.928 136.32 212.608 156.843 114.987 27.008 235.008-11.392 313.259-100.053 15.573-17.664 42.496-19.371 60.203-3.797 17.664 15.573 19.371 42.539 3.797 60.245-99.072 112.299-251.093 160.896-396.757 126.677-110.037-25.771-207.104-97.237-266.325-196.011-26.624-44.416-43.904-92.245-52.437-141.312l-24.149 40.277c-12.16 20.139-38.357 26.709-58.581 14.549-20.181-12.117-26.752-38.315-14.592-58.539l109.269-181.845c7.083-11.819 19.456-19.499 33.195-20.565l3.328-0.128c12.544 0 24.533 5.547 32.725 15.232l137.045 163.499c15.104 18.133 12.8 45.013-5.291 60.16z" />
<glyph unicode="&#xe903;" glyph-name="synchronize-4" d="M143.744 781.141c87.509 81.621 201.472 124.544 321.152 120.107 122.411-4.309 234.325-56.277 315.136-146.475 57.771-64.384 95.317-144.597 110.677-233.131l56.064 84.48c13.013 19.627 39.509 25.003 59.179 11.947 19.627-13.013 24.96-39.467 11.904-59.136-7.339-11.051-121.643-183.467-129.237-194.219-19.883-23.723-50.987-21.632-67.413-0.896l-148.224 168.704c-15.531 17.707-13.781 44.629 3.883 60.203 17.749 15.531 44.672 13.781 60.245-3.883l68.565-78.080c-13.056 71.381-43.136 135.723-89.216 187.093-65.195 72.704-155.605 114.688-254.549 118.144-96.896 3.2-189.184-31.147-260.011-97.237-70.869-66.048-111.744-155.733-115.072-252.587-3.456-96.811 31.104-189.141 97.152-259.968s155.733-111.701 252.587-115.072c23.595-0.853 41.984-20.565 41.173-44.117-0.811-23.040-19.755-41.216-42.581-41.216l-1.536 0.043c-119.637 4.181-230.4 54.656-312.021 142.165-81.664 87.552-124.288 201.6-120.064 321.152 4.181 119.552 54.656 230.357 142.208 311.979z" />
<glyph unicode="&#xe904;" glyph-name="synchronize-42" d="M880.256 781.141c-87.509 81.621-201.472 124.544-321.152 120.107-122.411-4.309-234.325-56.277-315.136-146.475-57.771-64.384-95.317-144.597-110.677-233.131l-56.064 84.48c-13.013 19.627-39.509 25.003-59.179 11.947-19.627-13.013-24.96-39.467-11.904-59.136 7.339-11.051 121.643-183.467 129.237-194.219 19.883-23.723 50.987-21.632 67.413-0.896l148.224 168.704c15.531 17.707 13.781 44.629-3.883 60.203-17.749 15.531-44.672 13.781-60.245-3.883l-68.565-78.080c13.056 71.381 43.136 135.723 89.216 187.093 65.195 72.704 155.605 114.688 254.549 118.144 96.896 3.2 189.184-31.147 260.011-97.237 70.869-66.048 111.744-155.733 115.072-252.587 3.456-96.811-31.104-189.141-97.152-259.968s-155.733-111.701-252.587-115.072c-23.595-0.853-41.984-20.565-41.173-44.117 0.811-23.040 19.755-41.216 42.581-41.216l1.536 0.043c119.637 4.181 230.4 54.656 312.021 142.165 81.664 87.552 124.288 201.6 120.064 321.152-4.181 119.552-54.656 230.357-142.208 311.979z" />
<glyph unicode="&#xe905;" glyph-name="floppy-disk" d="M1002.667 960h-853.333c-5.675 0-11.093-2.261-15.104-6.229l-128-128c-3.968-4.011-6.229-9.472-6.229-15.104v-853.333c0-11.776 9.557-21.333 21.333-21.333h981.333c11.776 0 21.333 9.557 21.333 21.333v981.333c0 11.776-9.557 21.333-21.333 21.333zM853.333 0c0-11.776-9.557-21.333-21.333-21.333h-640c-11.776 0-21.333 9.557-21.333 21.333v85.333c0 11.776 9.557 21.333 21.333 21.333h640c11.776 0 21.333-9.557 21.333-21.333v-85.333zM362.667 469.333c0 82.347 66.987 149.333 149.333 149.333s149.333-66.987 149.333-149.333-66.987-149.333-149.333-149.333-149.333 66.987-149.333 149.333zM832 149.333h-213.333c-11.776 0-21.333 9.557-21.333 21.333s9.557 21.333 21.333 21.333h213.333c11.776 0 21.333-9.557 21.333-21.333s-9.557-21.333-21.333-21.333zM853.333 725.333c0-11.776-9.557-21.333-21.333-21.333h-640c-11.776 0-21.333 9.557-21.333 21.333v170.667c0 11.776 9.557 21.333 21.333 21.333h640c11.776 0 21.333-9.557 21.333-21.333v-170.667zM426.667 533.333c-11.776 0-21.333-9.557-21.333-21.333v-85.333c0-11.776 9.557-21.333 21.333-21.333s21.333 9.557 21.333 21.333v85.333c0 11.776-9.557 21.333-21.333 21.333zM533.333 469.333c0-11.782-9.551-21.333-21.333-21.333s-21.333 9.551-21.333 21.333c0 11.782 9.551 21.333 21.333 21.333s21.333-9.551 21.333-21.333z" />
<glyph unicode="&#xe906;" glyph-name="check-2" d="M1017.771 655.104l-149.333 149.333c-8.32 8.32-21.845 8.32-30.165 0l-518.272-518.272-134.229 134.229c-8.32 8.32-21.845 8.32-30.165 0l-149.333-149.333c-8.32-8.32-8.32-21.845 0-30.165l298.667-298.667c4.139-4.139 9.6-6.229 15.061-6.229s10.923 2.091 15.104 6.229l682.667 682.667c8.32 8.32 8.32 21.845 0 30.208z" />
</font>
</defs>
</svg>
